<?xml version="1.0" encoding="utf-8"?>
<!-- Generator: Adobe Illustrator 25.0.0, SVG Export Plug-In . SVG Version: 6.00 Build 0)  -->
<svg version="1.1" id="Layer_1" xmlns="http://www.w3.org/2000/svg" xmlns:xlink="http://www.w3.org/1999/xlink" x="0px" y="0px"
	 viewBox="0 0 160 160" style="enable-background:new 0 0 160 160;" xml:space="preserve">
<style type="text/css">
	.st0{fill:none;stroke:#E31D3B;stroke-width:4;stroke-miterlimit:10;}
	.st1{fill:#E31D3B;}
	.st2{fill:#D5DBE1;}
</style>
<g>
	<circle class="st0" cx="117.6" cy="120.8" r="33.5"/>
	<path class="st1" d="M111.8,136.8c-1.2,0-2.3-0.5-3.1-1.3l-10.2-10.2l6.2-6.2l6.9,6.9l15.9-18.3l6.6,5.8l-19,21.9
		c-0.8,0.9-2,1.5-3.1,1.5C111.9,136.8,111.9,136.8,111.8,136.8z"/>
</g>
<path d="M64,137.7c-0.2-1.8-0.3-3.7-0.5-5.6c-3.5-2.4-7.2-5.3-10.8-8.9C42.2,112.9,29.7,95,29.7,67.9v-26c17.7-5,34.2-12,50.3-21.4
	c15.7,9.1,33,16.5,50.3,21.4v26c0,0.4,0,0.8,0,1.2c1.8,0,3.7,0,5.5,0c0-0.4,0-0.8,0-1.3V39.8c0-1.2-0.8-2.3-2-2.7
	c-18-4.9-36.1-12.6-52.4-22.2c-0.9-0.5-1.9-0.5-2.8,0c-16.7,9.9-33.9,17.1-52.4,22.2c-1.2,0.3-2,1.4-2,2.7v28.1
	c0,29,13.4,48.1,24.6,59.1c4.9,4.8,10.2,8.8,15.1,11.8C63.9,138.5,63.9,138.1,64,137.7z"/>
<path d="M52,40c-4.9,1.9-10,3.7-15,5.3c-1.1,0.4-1.9,1.4-1.9,2.6v10.6c0,1.5,1.2,2.8,2.8,2.8c1.5,0,2.8-1.2,2.8-2.8V50
	c4.5-1.5,9-3.1,13.4-4.8c1.4-0.6,2.1-2.2,1.6-3.6C55,40.2,53.4,39.5,52,40z"/>
<path d="M59.8,36.8L59.8,36.8c-1.4,0.6-2.1,2.2-1.5,3.6c0.5,1,1.5,1.6,2.5,1.6c0.4,0,0.7-0.1,1.1-0.2l0.1,0c1.4-0.6,2-2.2,1.4-3.6
	C62.8,36.8,61.1,36.2,59.8,36.8z"/>
<path class="st2" d="M56.5,126.3c-10.2-11.1-22.3-30.4-22.3-59.7v-26c-1.5,0.5-3,0.9-4.5,1.3v26c0,27,12.4,44.9,22.8,55.1
	c2,2,4.1,3.8,6.2,5.5C58,127.8,57.2,127.1,56.5,126.3z"/>
</svg>
