<?xml version="1.0" encoding="utf-8"?>
<!-- Generator: Adobe Illustrator 25.0.0, SVG Export Plug-In . SVG Version: 6.00 Build 0)  -->
<svg version="1.1" id="Layer_1" xmlns="http://www.w3.org/2000/svg" xmlns:xlink="http://www.w3.org/1999/xlink" x="0px" y="0px"
	 viewBox="0 0 160 160" style="enable-background:new 0 0 160 160;" xml:space="preserve">
<style type="text/css">
	.st0{fill:none;stroke:#E31D3B;stroke-width:4;stroke-miterlimit:10;}
	.st1{fill:#E31D3B;}
	.st2{fill:#D5DBE1;}
</style>
<g>
	<g>
		<circle class="st0" cx="117.6" cy="120.8" r="33.5"/>
		<path class="st1" d="M111.8,136.8c-1.2,0-2.3-0.5-3.1-1.3l-10.2-10.2l6.2-6.2l6.9,6.9l15.9-18.3l6.6,5.8l-19,21.9
			c-0.8,0.9-2,1.5-3.1,1.5C111.9,136.8,111.9,136.8,111.8,136.8z"/>
	</g>
	<g>
		<g>
			<path d="M75.2,104.5H58.3c-3.8,0-10.2-1.8-12.4-4c-0.7-0.7-1.7-0.9-2.6-0.5c-0.9,0.4-1.5,1.2-1.5,2.2c0,3.9-3.2,7.1-7.1,7.1H20.7
				c-3.9,0-7.1-3.2-7.1-7.1V64.5c0-3.9,3.2-7.1,7.1-7.1h21.2v2.4c0,0.8,0.4,1.6,1.1,2c0.7,0.4,1.6,0.5,2.3,0.1l4.7-2.4
				c0.5-0.2,0.9-0.6,1.1-1.1l14.1-30.6c0.1-0.3,0.2-0.6,0.2-1V11.7c1-0.5,2.7-1.3,4.7-1.3c2.6,0,9.4,6.4,9.4,14.1
				c0,8.3-4.5,20.2-4.5,20.3c-0.3,0.7-0.2,1.5,0.3,2.2c0.4,0.6,1.2,1,1.9,1h32.4c3.9,0,7.3,2.8,7.6,6.4c0.2,2.7-1,5.2-3.3,6.7
				c-0.7,0.4-1.1,1.2-1.1,2.1c0,0.9,0.5,1.6,1.3,2c2,1,3.2,3,3.2,5.2c0,3-2.2,5.5-5.2,5.8c-0.9,0.1-1.7,0.7-2,1.6
				c-0.2,0.7-0.1,1.5,0.3,2.1c2,0.1,3.9,0.1,5.9,0.2c0-0.1-0.1-0.2-0.1-0.2c3.5-1.7,5.8-5.3,5.8-9.4c0-2.8-1.1-5.5-3.1-7.4
				c2.2-2.4,3.3-5.6,3-9c-0.6-6-5.9-10.7-12.3-10.7H80.4c1.4-4.4,3.7-12.4,3.7-18.8c0-10.2-8.7-18.8-14.1-18.8
				c-4.9,0-8.4,2.8-8.5,2.9c-0.6,0.4-0.9,1.1-0.9,1.8v15.9L47.1,55.7L46.5,56v-0.9c0-1.3-1.1-2.4-2.4-2.4H20.7
				c-6.5,0-11.8,5.3-11.8,11.8v37.6c0,6.5,5.3,11.8,11.8,11.8h14.1c5.1,0,9.4-3.2,11.1-7.8c3.9,2,9.2,3.1,12.5,3.1h16.9
				C74.5,107.8,74.5,106,75.2,104.5z"/>
		</g>
	</g>
	<path class="st2" d="M79.1,48.1h30.4c2.2,0,4.2,0.9,5.6,2.3c-0.4-0.1-0.8-0.1-1.3-0.1H81.4c-0.8,0-1.5-0.4-1.9-1
		C79.3,48.9,79.1,48.5,79.1,48.1z M17.9,104.4V66.8c0-3.9,3.2-7.1,7.1-7.1h16.8v-2.2H20.7c-3.9,0-7.1,3.2-7.1,7.1v37.6
		c0,3.6,2.7,6.6,6.3,7C18.7,107.9,17.9,106.2,17.9,104.4z M46.2,62.1c0,0.8,0.4,1.6,1.1,2c0.7,0.4,1.6,0.5,2.3,0.1l4.7-2.4
		c0.5-0.2,0.9-0.6,1.1-1.1l14.1-30.6c0.1-0.3,0.2-0.6,0.2-1V13.9c0.9-0.5,2.4-1.2,4.2-1.3c-1.5-1.4-2.9-2.2-3.9-2.2
		c-2,0-3.7,0.7-4.7,1.3v15.2c0,0.3-0.1,0.7-0.2,1L51,58.5c-0.2,0.5-0.6,0.9-1.1,1.1l-3.8,1.9V62.1z"/>
</g>
</svg>
