<?xml version="1.0" encoding="utf-8"?>
<!-- Generator: Adobe Illustrator 25.0.0, SVG Export Plug-In . SVG Version: 6.00 Build 0)  -->
<svg version="1.1" id="Layer_1" xmlns="http://www.w3.org/2000/svg" xmlns:xlink="http://www.w3.org/1999/xlink" x="0px" y="0px"
	 viewBox="0 0 160 160" style="enable-background:new 0 0 160 160;" xml:space="preserve">
<style type="text/css">
	.st0{fill:#F3F3F1;}
	.st1{fill:#222222;}
	.st2{fill:none;stroke:#E31D3B;stroke-width:4;stroke-miterlimit:10;}
	.st3{fill:#E31D3B;}
</style>
<path class="st0" d="M63.9,133.1L26.7,95.9c-1.9-1.9-3.1-4.6-3.1-7.5c0-2.8,1.1-5.4,2.9-7.3l57.2-59.4c2.9-3.1,7-5,11.6-5H83.4
	c-4.6,0-8.7,1.9-11.6,5L14.6,81.1c-1.8,1.9-2.9,4.5-2.9,7.3c0,2.9,1.2,5.6,3.1,7.5l37.1,37.2c1.9,1.9,4.6,3.1,7.5,3.1
	c2.2,0,4.3-0.7,6-1.9C64.9,133.9,64.3,133.5,63.9,133.1z"/>
<g>
	<path class="st1" d="M108.6,28.2c-6.1,0-11.1,5-11.1,11.1c0,6.1,5,11.1,11.1,11.1c6.1,0,11.1-5,11.1-11.1
		C119.7,33.2,114.7,28.2,108.6,28.2z M108.6,45.4c-3.4,0-6.1-2.7-6.1-6.1c0-3.4,2.7-6.1,6.1-6.1c3.4,0,6.1,2.7,6.1,6.1
		C114.7,42.7,112,45.4,108.6,45.4z"/>
	<path class="st1" d="M120.5,14.2H83.3c-5.1,0-9.8,2-13.3,5.7L12.8,79.4c-2.3,2.5-3.6,5.8-3.6,9.1c0,3.6,1.4,6.8,3.9,9.2l37.1,37.1
		c2.4,2.5,5.7,3.8,9.2,3.8c3.3,0,6.5-1.3,8.8-3.5c0.1-0.1,0.2-0.2,0.2-0.4s-0.1-0.3-0.1-0.4l-2.8-2.8c-0.1-0.1-0.2-0.1-0.4-0.1
		c-0.1,0-0.2,0-0.3,0.1c-1.4,1.3-3.4,2-5.4,2c-2.2,0-4.3-0.9-5.7-2.3L16.4,94.1c-1.5-1.5-2.3-3.5-2.3-5.7c0-2.1,0.8-4.1,2.2-5.5
		l57.2-59.5c2.6-2.7,6-4.2,9.8-4.2h37.2c4.5,0,8.1,3.6,8.1,8.1v33.8c0,0.3,0.2,0.5,0.5,0.5h4c0.3,0,0.5-0.2,0.5-0.5V27.3
		C133.6,20.1,127.7,14.2,120.5,14.2z"/>
</g>
<g>
	<g>
		<path class="st1" d="M67.1,89c-3.6-3.6-4.7-8.8-3.3-13.4l8.4,8.4l2.9-2.9l-9.3-9.3c0.4-0.5,0.8-1.1,1.3-1.6c0.5-0.5,1-0.9,1.6-1.3
			l9.3,9.3l2.9-2.9l-8.4-8.4c4.6-1.4,9.7-0.3,13.4,3.3c2.3,2.3,3.6,5.3,3.8,8.4h5.1c-0.2-4.3-2.1-8.7-5.3-12
			c-5.6-5.6-14.1-6.9-21-3.6L63.4,58l-2.9,2.9l4.4,4.4c-0.5,0.4-1,0.9-1.5,1.4c-0.5,0.5-1,1-1.4,1.5l-4.4-4.4l-2.9,2.9l5.1,5.1
			c-3.2,6.9-2.1,15.3,3.6,21c3.3,3.3,7.7,5.1,12,5.3V93C72.5,92.6,69.5,91.3,67.1,89z"/>
	</g>
</g>
<circle class="st2" cx="123.2" cy="118.2" r="29.1"/>
<path class="st3" d="M118.1,132.1c-1,0-2-0.4-2.7-1.1l-8.9-8.9l5.4-5.4l6,6l13.8-15.9l5.7,5l-16.5,19
	C120.2,131.6,119.2,132.1,118.1,132.1C118.2,132.1,118.2,132.1,118.1,132.1z"/>
</svg>
