<?xml version="1.0" encoding="utf-8"?>
<!-- Generator: Adobe Illustrator 25.0.0, SVG Export Plug-In . SVG Version: 6.00 Build 0)  -->
<svg version="1.1" id="Layer_1" xmlns="http://www.w3.org/2000/svg" xmlns:xlink="http://www.w3.org/1999/xlink" x="0px" y="0px"
	 viewBox="0 0 160 160" style="enable-background:new 0 0 160 160;" xml:space="preserve">
<style type="text/css">
	.st0{fill:none;stroke:#FFFFFF;stroke-width:4;stroke-miterlimit:10;}
	.st1{fill:#FFFFFF;}
	.st2{fill:#7F001E;}
</style>
<g>
	<circle class="st0" cx="117.6" cy="120.8" r="33.5"/>
	<path class="st1" d="M111.8,136.8c-1.2,0-2.3-0.5-3.1-1.3l-10.2-10.2l6.2-6.2l6.9,6.9l15.9-18.3l6.6,5.8l-19,21.9
		c-0.8,0.9-2,1.5-3.1,1.5C111.9,136.8,111.9,136.8,111.8,136.8z"/>
</g>
<path d="M123.3,40.6c-0.6,0-1.2-0.3-1.5-0.8c-1-1.5-1.9-3-2.9-4.3c-0.6-0.8-0.4-1.9,0.4-2.5s1.9-0.4,2.5,0.4c1,1.4,2.1,3,3.1,4.6
	c0.5,0.8,0.3,1.9-0.6,2.5C124,40.5,123.7,40.6,123.3,40.6L123.3,40.6z"/>
<path d="M111.8,26.9c-0.4,0-0.9-0.2-1.2-0.4c-1.5-1.3-2.8-2.3-4-3.2c-0.8-0.6-1-1.7-0.4-2.5s1.7-1,2.5-0.4l0,0
	c1.3,1,2.7,2.1,4.3,3.4c0.7,0.7,0.8,1.8,0.2,2.5C112.8,26.7,112.3,26.9,111.8,26.9z"/>
<path d="M130.6,70.6c0,0.5,0,1,0,1.5c1.2,0,2.4,0,3.6,0c0.2-7.3-0.9-14.7-3.4-21.9c-0.3-0.9-1.3-1.4-2.3-1.1
	c-0.9,0.3-1.4,1.3-1.1,2.3C129.5,57.6,130.6,64.1,130.6,70.6z"/>
<path d="M67.1,129.6c-30.6-2.2-54.7-27.7-54.7-58.8c0-32.6,26.4-59.1,59-59.2c8.4,0,16.7,1.8,24.3,5.2c0.9,0.4,2,0,2.4-0.9
	s0-2-0.9-2.4C89.1,9.9,80.3,8,71.4,8C36.8,8,8.7,36.1,8.7,70.8c0,33.3,25.9,60.5,58.7,62.6C67.3,132.1,67.2,130.9,67.1,129.6z"/>
<path d="M21.2,70.8c0,26.2,20.1,47.7,45.6,50c0-1.2,0.1-2.4,0.3-3.6C43.4,115,24.8,95.1,24.8,70.8c0-25.8,20.9-46.6,46.6-46.6
	C97.2,24.2,118,45,118,70.8c0,0.5,0,1,0,1.6c1.2,0,2.4,0,3.6,0c0-0.5,0-1,0-1.5c0-27.7-22.5-50.2-50.2-50.2S21.2,43,21.2,70.8z"/>
<path class="st2" d="M29.5,73.3c0-25.8,20.9-46.6,46.6-46.6c6.9,0,13.5,1.5,19.5,4.3c-7.1-4.4-15.4-6.9-24.3-6.9
	c-25.8,0-46.6,20.9-46.6,46.6c0,18.8,11.1,35,27.1,42.4C38.4,104.8,29.5,90.1,29.5,73.3z"/>
<path d="M88,96.3c-0.3,0-0.6-0.1-0.8-0.2l-15.8-8.3l-15.8,8.3c-0.9,0.5-2,0.1-2.4-0.8C53,95,53,94.6,53,94.2l3-17.6L43.3,64.2
	c-0.7-0.7-0.7-1.8,0-2.5c0.3-0.3,0.6-0.5,1-0.5L62,58.6l7.9-16c0.5-0.9,1.7-1.2,2.6-0.7c0.3,0.2,0.5,0.4,0.7,0.7l7.9,16l17.7,2.6
	c1,0.1,1.7,1.1,1.5,2c-0.1,0.4-0.2,0.8-0.5,1l-13,12.5l3,17.6c0.2,1-0.5,1.9-1.5,2.1C88.2,96.3,88.1,96.3,88,96.3L88,96.3z M71.4,84
	c0.3,0,0.6,0.1,0.8,0.2l13.4,7L83,76.3c-0.1-0.6,0.1-1.2,0.5-1.6l10.8-10.6l-15-2.2c-0.6-0.1-1.1-0.5-1.4-1l-6.7-13.6L64.7,61
	c-0.3,0.5-0.8,0.9-1.4,1l-15,2.2l10.8,10.6c0.4,0.4,0.6,1,0.5,1.6L57,91.3l13.4-7C70.8,84.1,71.1,84,71.4,84L71.4,84z"/>
</svg>
