<?xml version="1.0" encoding="utf-8"?>
<!-- Generator: Adobe Illustrator 25.0.0, SVG Export Plug-In . SVG Version: 6.00 Build 0)  -->
<svg version="1.1" id="Layer_1" xmlns="http://www.w3.org/2000/svg" xmlns:xlink="http://www.w3.org/1999/xlink" x="0px" y="0px"
	 viewBox="0 0 160 160" style="enable-background:new 0 0 160 160;" xml:space="preserve">
<style type="text/css">
	.st0{fill:none;stroke:#E31D3B;stroke-width:4;stroke-miterlimit:10;}
	.st1{fill:#E31D3B;}
	.st2{fill:#D5DBE1;}
</style>
<g>
	<circle class="st0" cx="112.7" cy="118.2" r="29.1"/>
	<path class="st1" d="M107.6,132.1c-1,0-2-0.4-2.7-1.1l-8.9-8.9l5.4-5.4l6,6l13.8-15.9l5.7,5l-16.5,19
		C109.7,131.6,108.7,132.1,107.6,132.1C107.7,132.1,107.7,132.1,107.6,132.1z"/>
	<path d="M96.4,48.2L83.7,73.8c1.7,0.1,3.4,0.2,5.1,0.2L100,51.5l11.5,23.3c1.6-0.4,3.2-0.7,4.7-1.1l-12.7-25.6
		c3.5-0.5,6.9-1.6,10.1-3.4c1.1-0.6,1.5-2.1,0.9-3.2c-0.6-1.1-2.1-1.5-3.2-0.9c-6.9,4-15.6,4-22.5,0.1L74,32.3
		c2.4-1.7,3.9-4.4,3.9-7.5c0-5.1-4.1-9.2-9.2-9.2c-5,0-9.2,4.1-9.2,9.2c0,3.1,1.6,5.9,3.9,7.5l-14.9,8.4c-7,3.9-15.6,3.9-22.5-0.1
		c-1.1-0.6-2.6-0.3-3.2,0.9c-0.6,1.1-0.3,2.6,0.9,3.2c3.1,1.8,6.6,2.9,10.1,3.4l-15.3,31c-0.1,0.3-0.2,0.6-0.3,0.9c0,0,0,0,0,0
		c0,0,0,0,0,0c0,0,0,0,0,0c0,0,0,0,0,0c0,0,0,0,0,0.1v0c0,0,0,0,0,0.1c0,10.6,8.6,19.2,19.2,19.2c10.6,0,19.2-8.6,19.2-19.2
		c0,0,0,0,0-0.1v0c0,0,0,0,0-0.1c0,0,0,0,0,0c0,0,0,0,0,0c0,0,0,0,0,0c0,0,0,0,0,0c0-0.3-0.1-0.6-0.3-0.9L41,48.2
		c3.4-0.5,6.8-1.6,9.9-3.3l15.4-8.7v25.4c0,1.3,1.1,2.4,2.4,2.4s2.4-1.1,2.4-2.4V36.1l15.4,8.7C89.6,46.6,93,47.7,96.4,48.2z
		 M37.4,94.7c-7.2,0-13.2-5.3-14.3-12.2h28.6C50.6,89.5,44.6,94.7,37.4,94.7z M50.5,77.8H24.4l13.1-26.4L50.5,77.8z M68.7,29.2
		c-2.4,0-4.4-2-4.4-4.4c0-2.4,2-4.4,4.4-4.4c2.4,0,4.4,2,4.4,4.4C73.2,27.3,71.2,29.2,68.7,29.2z"/>
	<path d="M67.3,70.3c-0.8,0.6-1.1,1.7-0.8,2.6c0.3,0.9,1.2,1.6,2.2,1.6h0c1.1,0,2.1-0.9,2.3-2c0.2-1-0.3-1.9-1.1-2.4
		C69.1,69.6,68,69.7,67.3,70.3z"/>
	<path d="M73,133.5c-0.1-0.5-0.1-1.1-0.2-1.6H37.2v-2.5c0-2.5,2-4.5,4.5-4.5h30.4c-0.1-1.6-0.2-3.2-0.3-4.7H47.9v-2.5h0
		c0-2.5,2-4.5,4.5-4.5h19.3c0.1-1.6,0.2-3.2,0.4-4.7h-1V82.9c0-1.3-1.1-2.4-2.4-2.4s-2.4,1.1-2.4,2.4v25.7h-14
		c-5.1,0-9.2,4.1-9.2,9.2v2.5h-1.5c-5.1,0-9.2,4.1-9.2,9.2v4.8c0,1.3,1.1,2.4,2.4,2.4h38.2C73.1,135.5,73,134.5,73,133.5z"/>
	<path class="st2" d="M39,94.6c-6.5-0.7-11.6-5.7-12.7-12.1h-3.3c1.1,6.9,7.1,12.2,14.3,12.2C38,94.7,38.5,94.7,39,94.6z"/>
	<path class="st2" d="M92.1,74l9.5-19.3l-1.6-3.3L88.8,74.1C89.9,74,91,74,92.1,74z"/>
	<polygon class="st2" points="39,54.8 37.4,51.5 24.4,77.8 27.6,77.8 	"/>
	<path class="st2" d="M37.2,129.4v2.5h3.3v-2.5c0-2.5,2-4.5,4.5-4.5h-3.3C39.2,124.9,37.2,126.9,37.2,129.4z"/>
	<path class="st2" d="M47.9,117.7L47.9,117.7l0,2.5h3.3v-2.5h0c0-2.5,2-4.5,4.5-4.5h-3.3C49.9,113.3,47.9,115.3,47.9,117.7z"/>
</g>
</svg>
