<svg xmlns="http://www.w3.org/2000/svg" width="970.27" height="212.25" viewBox="0 0 970.27 212.25"><path d="M965.85 55.14c.22 4.71.36 8.84.62 13q1.82 28.41 3.69 56.82c.78 11.83-2.59 22-12.08 29.56-6.94 5.51-15.2 8.07-23.89 8.48a57 57 0 0 1-15.8-1.5c-8.15-2-12.74-7.14-17.3-17.65-3.1 2.7-6.05 5.58-9.31 8.07-12.28 9.37-26.12 13-41.42 10.64-10.31-1.59-16.3-6.44-21.07-16.61-3.82 3.53-7.4 7.47-11.59 10.58a33 33 0 0 1-27.47 6c-9-1.93-14.38-9.1-15.4-18.35-1.08-9.76 1.59-19 3.5-28.29 3.48-17 7.18-33.92 10.68-50.9.5-2.42 1.32-3.44 4-3.37 7.53.2 15.06.06 22.6.08 1 0 1.92.1 3.33.19-1.26 6.16-2.43 12.07-3.69 18-3.62 17-7.28 33.91-10.89 50.87a27 27 0 0 0-.69 5.48c0 5.32 3.81 8.25 9.45 7.4 8-1.21 13.6-8.4 14.28-16.46 1.77-20.91 7.54-40.36 23.21-55.47a40.68 40.68 0 0 1 28.51-11.91 54.18 54.18 0 0 1 12 1c10 2.17 13.73 10.59 12.61 20.92-2.1 19.39-14.38 30.42-31.66 36.83-3.81 1.42-8 1.71-12 2.78-1 .26-2.42 1.5-2.41 2.28.07 5-.17 10.07 1 14.83 1.53 6.45 5.82 7.56 12.38 7.72 10.39.25 19.26-3.75 26.8-10.82a17.67 17.67 0 0 0 4.54-6.49A18.31 18.31 0 0 1 908 121c3.78-2.75 5.62-6.56 7.6-10.37 8.06-15.58 14.1-32 19.47-48.63.65-2 1.39-2.91 3.69-3.17 8.87-1 17.74-2.38 27.09-3.69zM937.24 83.6l-15.44 35.19c4.27 4.11 5.33 8 2.49 12.41a11.2 11.2 0 0 1-5.66 4.36c-2.11.64-4.69-.23-7-.44.62 6.19 1.8 8.9 5.38 10.49 9.49 4.22 23.44-.38 23.65-14.27.12-7.57-.68-15.17-1.24-22.74-.64-8.37-1.42-16.73-2.18-25zm-78 27.87a33.5 33.5 0 0 0 3.35-.42c8.48-2 14.89-6.94 19.69-14a32.54 32.54 0 0 0 5.79-20.29c-.29-5.79-4.4-8.15-9.07-4.92a27.69 27.69 0 0 0-6.85 6.8c-6.76 9.75-10.15 20.95-12.86 32.83z"/><path d="M801.42 29.78c-1.61-5.67-7.29-8.54-13.7-7.23-7.36 1.51-12.62 5.84-15 12.68-2.91 8.43-4.81 17.21-7.28 26.38h16.61l-1.62 7.92c-4.51 0-9 .12-13.41 0-2.25-.09-2.93.86-3.35 2.89-3.31 16.13-6.73 32.25-10.12 48.37-4.06 19.3-8 38.61-12.21 57.88-2.53 11.65-7.15 22.16-17.78 28.88-9.86 6.24-25.6 6.55-34.53-.34a20.2 20.2 0 0 1-7.9-14.77c-1.17-12.25 5-20.08 15.44-25.07a115 115 0 0 1 15.8-6c2.59-.8 3.78-2 4.13-4.55.26-1.92.69-3.82 1.06-5.86-3.35 2.53-6.37 5.34-9.85 7.33-9.07 5.17-18.8 7-28.74 3-7.67-3.1-10.58-9.88-11.48-17.65-1-8.6 1.24-16.82 3-25.09q5.71-27 11.37-54.09c.3-1.42.34-2.77 2.39-2.75 8.94.06 17.88 0 27.29 0-.63 3.53-1.13 6.79-1.82 10-4.2 19.6-8.49 39.18-12.6 58.8a19 19 0 0 0-.19 8.1 7.15 7.15 0 0 0 4 4.35c5.72 1.91 12-1 16.3-6.76a40.85 40.85 0 0 0 7-16.34c4.58-21.86 9.07-43.73 13.78-65.56 2.48-11.5 6.46-22.34 15-31a39.62 39.62 0 0 1 22-11.11 66.55 66.55 0 0 1 28.39 1.37c7.7 2 14.22 5.9 16.63 14.07 1.69 5.74 1.87 11.7-1.43 17-4 6.51-15.53 8.35-22 4.06-5.16-3.45-4.6-14.26.12-17.61 1.35-.79 3.04-.84 4.7-1.3zM714.22 167a83.51 83.51 0 0 0-7.85 3.23c-5.74 3.1-11.61 6.14-13.62 13.13-1.23 4.28.11 7.95 3.58 9.73 3.67 1.88 7.3 1.08 10.15-2.4 5.52-6.69 5.75-15.07 7.74-23.69z"/><path d="M153.23 2.9L137 79.22a35.17 35.17 0 0 1 5.31-.6 16.59 16.59 0 0 1 3.81 1.05c-1 1.8.65 5-2.89 5.4a51.23 51.23 0 0 1-5.2.53c-1.86 0-2.63.77-3 2.63-3 14.26-6.06 28.49-9.08 42.74q-2.13 10-4.15 20.07c-.47 2.34-1.54 3.46-4.21 3.41-8.38-.18-16.76-.06-25.68-.06l13.81-65.45c-4 .25-7.31.42-10.64.69-7.59.6-15.17 1.35-22.76 1.8-2.08.12-3.26.74-3.82 2.7-4 13.81-8.44 27.49-11.79 41.45-2.17 9-2.9 18.44-4 27.71-.53 4.62-.65 9.36 2.43 14-7-.22-13.49-.31-19.13-3.84-5.29-3.31-6.86-8.75-7.29-14.62-.84-11.67 2-22.77 5.86-33.57 3.54-9.83 7.74-19.41 11.65-29.11.35-.88.65-1.77 1.23-3.38-3.08 0-5.64.15-8.17 0-8.66-.62-17.49-.36-25.65-4a32.78 32.78 0 0 1-8.14-4.73c-8.19-7-7.12-17.78 2.6-22.53a51 51 0 0 1 17-5.17c10.05-1 20.25-1 30.25 1.28 1.8.41 3.6.87 5.37 1.37 5.22 1.49 5.1 1.43 8-2.93 8.8-13.3 18.4-26 30.11-36.9 7.82-7.28 16.32-13.72 26.71-17.16 9.18-3.13 18.19-2.37 27.69.9zm-31.82 11.55l-1.2-.9c-3.18 2.36-6.59 4.48-9.51 7.13C97.36 32.78 88.9 48.27 81 64.12c-.92 1.85-.14 2.76 1.47 3.58q7.85 4 15.63 8.17c2.92 1.55 5.78 3.21 9.12 5.07zM62.72 65.09c-1.32-.49-2.2-.86-3.11-1.13a58.52 58.52 0 0 0-27.69-1.76 40.2 40.2 0 0 0-12 4.56 5.86 5.86 0 0 0-1.21 9.3 22.94 22.94 0 0 0 6.78 4.83c6.17 2.92 12.89 2.47 19.52 2.82 5.28.28 8.71-.89 10.78-6.21 1.67-4.28 4.48-8.12 6.93-12.41zm38.72 17.5l.3-1.52c-7.41-3.4-14.82-6.82-22.26-10.16a1.76 1.76 0 0 0-1.64.43c-1.75 3.87-3.37 7.79-5.38 12.51z" fill="#ff9100"/><path d="M636 62l-2.08 10.76c3.88-2.69 7.44-5.25 11.1-7.69 4.75-3.16 10.09-4 15.63-3.43 6.57.65 12 8.39 11.15 16.12-1 8.42-6.31 13.47-14.36 13.57-4.94.06-7.39-2-8.27-6.94-.06-.32-.08-.65-.14-1-1-5.31-3-6.79-7.87-4.62a31.7 31.7 0 0 0-9.52 6.6c-1.52 1.55-1.66 4.55-2.17 7-4.68 22.29-9.28 44.59-14 66.86-.22 1-1.51 2.66-2.33 2.67-9 .19-18.09.12-27.44.12l4.43-21.23c-1.68 1.58-2.75 2.48-3.7 3.5-7.69 8.18-16.62 14.39-27.64 17.13-10.34 2.57-20.69 2.95-30.62-1.6-8.75-4-13-11.58-13.95-20.67-2.24-22 3.28-42.24 16.14-60.24 10.29-14.4 24.7-20.68 42.18-19.08 13.64 1.25 19.19 8.73 17.25 23.37-2.47 18.57-14.73 29.1-31.39 35.27-3.81 1.41-8 1.91-12 2.69-1.55.3-2.66.58-2.53 2.57.33 4.73 0 9.57.86 14.17 1.4 7.24 8.11 8.79 16.29 8.1 13.81-1.17 23.31-9.52 31.47-19.55 2-2.43 2-6.49 2.77-9.84q5.66-26.2 11.18-52.43c.33-1.56.64-2.61 2.57-2.59 8.62.08 17.25.05 25.87.08A4.72 4.72 0 0 1 636 62zm-90.5 49.54c1.41-.23 2.45-.38 3.48-.57 7.11-1.28 12.57-5.36 17.07-10.68 5.87-7 9.09-15 8.2-24.28-.49-5.1-3.81-7-8.18-4.47a24.22 24.22 0 0 0-6.92 6.21c-7.41 9.85-10.7 21.45-13.65 33.79z"/><path d="M279.44 52.06c-2.65 12.54-5.14 24.33-7.62 36.13-2.82 13.41-5.72 26.81-8.41 40.24-.68 3.41-1.15 7.14 2.8 9.22 2.74 1.44 5.89 0 9.48-3.21 4.55-4.06 4.74-9.4 5.41-14.8.7-5.63 2.79-10.78 7.07-14.72 1.25-1.16 2.81-2.53 4.36-2.72 3.24-.39 4.3-2.53 5.38-5 5.66-12.82 8.88-26.38 11.9-40 .43-1.94 1-3.26 3-3.67q12.76-2.63 25.53-5.24a7.87 7.87 0 0 1 1.78.18c0 3.26-.16 6.5 0 9.72.61 10.21 3.4 19.89 7 29.44 2.67 7.12 5.6 14.32 6.85 21.75 2.45 14.56.62 28.45-12.79 37.57-4.62 3.14-10.4 5-15.92 6.28-9.46 2.23-19 1.23-28.44-1.07-6.86-1.68-12-5.51-14.77-12.21a9.71 9.71 0 0 0-1.05-1.45c-1.15 1.3-2.16 2.46-3.2 3.6-4.39 4.86-8.57 10.48-15.37 11.6-13 2.13-28.39-3.32-27.71-20.51.31-8 2-15.91 3.53-23.76 3.17-16.1 6.67-32.13 10-48.19.18-.85.38-1.69.59-2.53 1.68-6.65 1.68-6.65 8.71-6.65zm36.06 18.12c-.75.59-1.14.73-1.22 1-3.09 9.74-6.19 19.47-9.16 29.25a2.73 2.73 0 0 0 .89 2.32c5.12 3.83 6.44 8.33 4.31 15.25a12.2 12.2 0 0 1-11.77 8.22c-2.56 0-5.12-.5-8-.8a21.21 21.21 0 0 0-.14 3.11c.68 7 4.48 11.45 11.39 13.49a16 16 0 0 0 17.34-5.31 28.91 28.91 0 0 0 5.5-25.84c-2.15-8.75-5-17.34-7.11-26.1-1.13-4.62-1.35-9.42-2.03-14.59z" fill="#ff9100"/><path d="M530.68 32.95c-9.38 21.63-18.58 42.84-27.77 64-9 20.83-18 41.69-27.1 62.49-.46 1.06-1.83 2.43-2.8 2.45-9.49.18-19 .11-28.87.11V44.1c-22.69 4.42-37.54 25.61-28.88 49.33-12.46 1.41-21.32-3.79-21.38-15.2-.06-11.15 5.58-19 13.37-25.7 13.68-11.77 29.94-17.88 47.63-20.14 5.75-.73 11.67-.12 17.58-.12a10.75 10.75 0 0 1 .25 1.46c.17 11.88.35 23.76.48 35.64.12 11 .08 22 .3 33.06.22 11.17.68 22.33 1.64 33.63 2-4.87 4-9.73 6-14.62q15.65-39.34 31.27-78.69c1.31-3.3 2.78-6.53 4.18-9.79z"/><path d="M191.9 52.08c-1.67 8.14-3.19 15.69-4.77 23.23-2.94 14-5.94 28.05-8.83 42.1a91.35 91.35 0 0 0-1.88 11.86c-.29 4 2.27 6.39 6.33 6.73 7.7.64 12.76-3.76 17.1-9.16 7.36-9.16 11.68-19.86 14.39-31.15 1.94-8.1 3.09-16.39 4.55-24.6a16.66 16.66 0 0 0 0-2.86 4.25 4.25 0 0 0-1.22-.16c-3.72.93-7.44 1-9.61-2.67s-3.54-7.94-.91-12.06a11.55 11.55 0 0 1 11.69-5.67c4.92.58 8 3.52 9.68 8.12 2.08 5.59 2.12 11.43 1.44 17.12a231.07 231.07 0 0 1-4.44 25.66c-3.72 15.8-10.28 30.38-21.68 42.19a42.5 42.5 0 0 1-32.54 13.52 41.17 41.17 0 0 1-12.38-2.5c-6.66-2.33-10.3-7.56-11.19-14.46-.94-7.32.17-14.53 1.72-21.71 3-13.7 5.77-27.44 8.67-41.15 1.42-6.69 2.85-13.39 4.44-20 .21-.89 1.37-2.22 2.1-2.23 8.95-.23 17.88-.15 27.34-.15z" fill="#ff9100"/><path d="M702.45 18.74c8.07-.3 16.43 5.46 16.35 16.14-.08 9.68-6.92 15.74-16.3 15.92a15.58 15.58 0 0 1-15.91-15.87c.04-9.93 7.23-16.3 15.86-16.19z"/><path d="M269.63 39.84c-9 0-15.53-6.74-15.48-15.86A15.55 15.55 0 0 1 269.87 8.2a15.89 15.89 0 0 1 15.93 16.34c-.07 8.68-7.09 15.32-16.17 15.3z" fill="#ff9100"/><path d="M596 10.62L582.41 32c-3 4.67-6 9.33-8.9 14-1.24 2-2.66 3.11-5.25 2.93-3.77-.27-7.57-.07-11.83-.07.74-1.9 1.21-3.4 1.89-4.81 5.06-10.47 10.11-20.94 15.32-31.33a4.31 4.31 0 0 1 3.07-2c6.2-.2 12.42-.1 19.29-.1zM868.6 49.57c4-8.33 7.79-16 11.51-23.72 2-4.2 4-8.45 6.11-12.61.42-.82 1.45-1.85 2.22-1.87 6.5-.15 13-.09 20.11-.09-3.3 5.21-6.3 9.94-9.31 14.67-4.43 7-8.91 13.91-13.29 20.91a5 5 0 0 1-5 2.76c-3.95-.21-7.8-.05-12.35-.05z"/></svg>