<?xml version="1.0" encoding="utf-8"?>
<!-- Generator: Adobe Illustrator 25.0.0, SVG Export Plug-In . SVG Version: 6.00 Build 0)  -->
<svg version="1.1" id="Layer_1" xmlns="http://www.w3.org/2000/svg" xmlns:xlink="http://www.w3.org/1999/xlink" x="0px" y="0px"
	 viewBox="0 0 306 116" style="enable-background:new 0 0 306 116;" xml:space="preserve">
<style type="text/css">
	.st0{fill-rule:evenodd;clip-rule:evenodd;}
	.st1{fill:url(#SVGID_1_);}
</style>
<path class="st0" d="M225.6,77.9v38h-8.1V0.5h40.6c14.4,0,25.7,3.5,33.4,10c7.9,6.6,12.1,16.2,12.1,28.4c0,19-9.8,31.9-27.5,36.9
	l29.9,40.2h-10.1l-28.6-38.5c-2.9,0.3-5.9,0.5-9.2,0.5H225.6z M6,109.4h69.5v5H1V2h72.3v5H6v47h59.8v5H6V109.4z M225.6,8.5v61.4
	h32.5c12,0,21.4-2.8,27.8-8.2c6.3-5.3,9.5-13,9.5-22.9c0-7.7-2.1-14.1-6.2-19c-6.2-7.5-16.9-11.3-31.2-11.3H225.6z"/>
<linearGradient id="SVGID_1_" gradientUnits="userSpaceOnUse" x1="97.437" y1="58" x2="197.563" y2="58">
	<stop  offset="0" style="stop-color:#E62A19"/>
	<stop  offset="1" style="stop-color:#A3250D"/>
</linearGradient>
<path class="st1" d="M147.5,7.9c-27.6,0-50.1,22.4-50.1,50.1s22.4,50.1,50.1,50.1s50.1-22.4,50.1-50.1S175.1,7.9,147.5,7.9z
	 M119.4,62.7c-2.7,0-4.8-2.2-4.8-4.8c0-2.7,2.2-4.8,4.8-4.8c2.7,0,4.8,2.2,4.8,4.8C124.2,60.5,122,62.7,119.4,62.7z M142.1,57.8V58
	c0,0,0,0,0,0c0,5-2.4,10.5-6.1,14.3c-1.1,1.2-3,1.2-4.2,0c-1.2-1.1-1.2-3,0-4.2c2.7-2.7,4.4-6.7,4.4-10.2c0,0,0,0,0,0v-0.2
	c0,0,0,0,0,0c0-3.5-1.7-7.4-4.4-10.2c-0.6-0.6-0.9-1.3-0.9-2.1c0-0.8,0.3-1.5,0.9-2.1c1.2-1.1,3-1.1,4.2,0
	C139.8,47.3,142.1,52.8,142.1,57.8C142.1,57.8,142.1,57.8,142.1,57.8z M144,84c-0.6-0.6-0.9-1.3-0.9-2.1c0-0.8,0.3-1.5,0.9-2.1
	c6.1-6,9.4-13.8,9.4-21.9c0-8.1-3.3-15.8-9.4-21.9c-1.2-1.1-1.2-3,0-4.2c1.1-1.2,3-1.2,4.2,0c7.2,7.1,11.2,16.4,11.2,26
	c0,9.6-4,18.9-11.2,26C147,85.2,145.2,85.2,144,84z M160.3,94.8c-1.2,1.1-3,1-4.2-0.1c-0.5-0.6-0.8-1.3-0.8-2c0-0.8,0.3-1.6,0.9-2.2
	c9.2-8.5,14.2-20.1,14.2-32.5c0-12.4-5-24-14.2-32.5c-1.2-1.1-1.3-3-0.1-4.2c1.1-1.2,3-1.3,4.2-0.1c10.4,9.7,16.1,22.7,16.1,36.8
	C176.4,72.1,170.7,85.2,160.3,94.8z"/>
</svg>
