<?xml version="1.0" encoding="utf-8"?>
<!-- Generator: Adobe Illustrator 25.2.0, SVG Export Plug-In . SVG Version: 6.00 Build 0)  -->
<svg version="1.1" id="Calque_1" xmlns="http://www.w3.org/2000/svg" xmlns:xlink="http://www.w3.org/1999/xlink" x="0px" y="0px"
	 viewBox="0 0 897.7 304.1" style="enable-background:new 0 0 897.7 304.1;" xml:space="preserve">
<style type="text/css">
	.st0{fill:#E31D3B;}
</style>
<g>
	<g id="XMLID_5_">
		<g id="XMLID_1146_">
			<path class="st0" d="M90.1-162.4v44.9h54.6v2.9H90.1v48h63.5v2.9H87.2v-101.6h64.3v2.9L90.1-162.4L90.1-162.4z"/>
			<path class="st0" d="M153.9-63.4h-67v-102.2h64.9v3.5H90.5v44.3h54.6v3.5H90.5v47.4h63.5V-63.4z M87.5-64h65.8v-2.3H89.8v-48.6
				h54.6v-2.3H89.8v-45.2h0.3v-0.3h61.1v-2.3H87.5V-64z"/>
		</g>
		<g id="XMLID_1143_">
			<path class="st0" d="M196.1-87.8L185-63.7h-2.7l36.6-79h2.5l37.1,79h-2.6l-11.2-24.1L196.1-87.8L196.1-87.8z M220.1-140.1l-23,50
				h46.5L220.1-140.1z"/>
			<path class="st0" d="M258.9-63.4h-3.3l-11.2-24.1h-48.1l-11.1,24.1h-3.4l36.9-79.6h2.9l0.1,0.2L258.9-63.4z M256-64h2l-36.8-78.3
				H219L182.7-64h2.1l11.1-24.1h48.9L256-64z M244-89.7h-47.4l23.5-51.1L244-89.7z M197.6-90.3h45.5l-23-49L197.6-90.3z"/>
		</g>
		<g id="XMLID_1141_">
			<path class="st0" d="M338.1-136.9l-1.1,1.8c-5.1-3.3-13-5.3-20.1-5.3c-14.1,0-23.2,6-23.2,15.2c0,26.4,48.1,12.9,47.8,42.2
				c0,11.6-10.6,19.2-27.1,19.2c-10.1,0-20.7-4.4-27.3-11.1l1.6-1.6C294.6-70,304.7-66,314.3-66c15.1,0,24.8-6.7,24.8-16.9
				c0.2-27.1-47.8-13.6-47.8-42.2c0-10.6,10.1-17.5,25.5-17.5C324.2-142.7,332.6-140.4,338.1-136.9z"/>
			<path class="st0" d="M314.3-63.4c-10,0-20.8-4.4-27.6-11.2l-0.2-0.2l2-2l0.2,0.2c6,6.3,16,10.3,25.5,10.3
				c14.9,0,24.5-6.5,24.5-16.6c0.1-13.1-11.2-16.5-23.1-20.1c-12.1-3.6-24.7-7.4-24.7-22.2c0-10.8,10.1-17.8,25.8-17.8
				c7.5,0,15.9,2.3,21.5,5.8l0.3,0.2l-1.5,2.3l-0.3-0.2c-5-3.2-12.9-5.3-20-5.3c-13.9,0-22.9,5.9-22.9,14.9
				c0,12.6,11.1,15.9,22.8,19.4c12.4,3.7,25.1,7.5,25,22.8C341.7-71.1,330.9-63.4,314.3-63.4z M287.4-74.8
				C294-68.2,304.6-64,314.3-64c16.3,0,26.8-7.4,26.8-18.9c0.1-14.9-12.4-18.6-24.6-22.2c-11.4-3.4-23.3-6.9-23.3-20
				c0-9.4,9.2-15.6,23.5-15.6c7.1,0,14.9,2,20,5.2l0.8-1.3c-5.4-3.4-13.6-5.5-20.9-5.5c-15.3,0-25.2,6.8-25.2,17.2
				c0,14.3,12.3,18,24.3,21.6c11.6,3.5,23.7,7.1,23.6,20.7c0,10.5-9.9,17.2-25.1,17.2c-9.6,0-19.6-4-25.8-10.3L287.4-74.8z"/>
		</g>
		<g id="XMLID_1139_">
			<path class="st0" d="M404.4-63.7h-2.3v-30.4l-32.6-48.6h2.7l31,46.3l30.6-46.3h2.7l-32.2,48.6V-63.7L404.4-63.7z"/>
			<path class="st0" d="M404.7-63.4h-2.9V-94l-32.9-49h3.5l0.1,0.1l30.8,45.9l30.4-46.1h3.5l-32.4,49V-63.4z M402.4-64h1.7l0-30.2
				l0.1-0.1l31.8-48.1h-2l-30.7,46.6l-31.2-46.6h-2l32.3,48.2V-64z"/>
		</g>
		<g id="XMLID_819_">
			<path class="st0" d="M541.9-132.3c0-20.9-14.3-33-39.3-33h-34.9v101.6h2.9v-34.9h31.9c3.4,0,6.5-0.3,9.4-0.6l26.2,35.5h3.7
				l-26.6-36C532.3-103.4,541.9-114.9,541.9-132.3z M502.6-101.5h-31.9v-60.9h31.9c23.1,0,36.4,10.9,36.4,30.1
				C539-112.7,525.7-101.5,502.6-101.5z"/>
			<path class="st0" d="M543.7-62.8h-6l-26.2-35.4c-2.7,0.3-5.7,0.5-9,0.5h-31v34.9h-4.8v-103.4h35.8c25.6,0,40.2,12.4,40.2,33.9
				c0,17.3-9.2,29.1-26,33.1L543.7-62.8z M538.7-64.6h1.4l-26.4-35.7l1.4-0.3c16.7-3.6,25.9-14.8,25.9-31.7
				c0-20.4-14-32.1-38.4-32.1h-34v99.8h1.1v-34.9h32.9c3.4,0,6.6-0.3,9.3-0.6l0.5-0.1L538.7-64.6z M502.6-100.6h-32.9v-62.7h32.9
				c23.7,0,37.3,11.3,37.3,31c0,9.9-3.4,18-9.8,23.5C523.6-103.4,514.3-100.6,502.6-100.6z M471.6-102.4h31
				c11.3,0,20.1-2.6,26.3-7.8c6.1-5.2,9.2-12.6,9.2-22.1c0-18.5-12.9-29.2-35.4-29.2h-31V-102.4z"/>
		</g>
		<g id="XMLID_1133_">
			<path class="st0" d="M585.4-87.6l-11,23.8h-2.7l36.3-78.2h2.5l36.7,78.2h-2.6l-11.1-23.8L585.4-87.6L585.4-87.6z M609.2-139.4
				l-22.8,49.6h46L609.2-139.4z"/>
			<path class="st0" d="M648.6-62.8H644l-11.1-23.8H586l-11,23.8h-4.7l37.1-80h3.7L648.6-62.8z M645.2-64.6h0.6L609.9-141h-0.4
				l24.4,52.1H585l24-52.1h-0.4l-35.4,76.4h0.7l11-23.8h49.2L645.2-64.6z M587.9-90.7H631l-21.8-46.5L587.9-90.7z"/>
		</g>
		<g id="XMLID_1130_">
			<path class="st0" d="M708.2-141.9c22.3,0,40.6,17.6,40.6,39.2c0,21.5-18.3,39.1-40.6,39.1h-31.2v-78.2H708.2z M679.3-66h28.9
				c21.1,0,38.3-16.6,38.3-36.8c0-20.4-17.2-36.9-38.3-36.9h-28.9V-66z"/>
			<path class="st0" d="M708.2-62.8h-32.1v-80h32.1c22.9,0,41.5,18,41.5,40.1C749.7-80.7,731.1-62.8,708.2-62.8z M678-64.6h30.3
				c21.9,0,39.7-17.1,39.7-38.1c0-21.1-17.8-38.2-39.7-38.2H678V-64.6z M708.2-65h-29.8v-75.6h29.8c21.6,0,39.2,17,39.2,37.8
				C747.5-82,729.9-65,708.2-65z M680.2-66.9h28c20.6,0,37.4-16.1,37.4-35.9c0-19.9-16.8-36-37.4-36h-28V-66.9z"/>
		</g>
	</g>
	<g id="XMLID_1128_">
		<line class="st0" x1="655.2" y1="-35.3" x2="168.6" y2="-35.3"/>
		<rect x="168.6" y="-35.9" class="st0" width="486.7" height="1.2"/>
	</g>
	<g id="XMLID_1127_">
		<line class="st0" x1="683.5" y1="-41" x2="140.3" y2="-41"/>
		<rect x="140.3" y="-41.6" class="st0" width="543.2" height="1.2"/>
	</g>
	<g id="XMLID_566_">
		<line class="st0" x1="355.3" y1="-185.9" x2="140.3" y2="-185.9"/>
		<rect x="140.3" y="-186.5" class="st0" width="215.1" height="1.2"/>
	</g>
	<g id="XMLID_552_">
		<line class="st0" x1="683.5" y1="-185.9" x2="468.5" y2="-185.9"/>
		<rect x="468.5" y="-186.5" class="st0" width="215" height="1.2"/>
	</g>
	<g id="XMLID_557_">
		<line class="st0" x1="351.4" y1="-191.7" x2="168.6" y2="-191.7"/>
		<rect x="168.6" y="-192.3" class="st0" width="182.9" height="1.2"/>
	</g>
	<g id="XMLID_518_">
		<line class="st0" x1="655.2" y1="-191.7" x2="472.2" y2="-191.7"/>
		<rect x="472.2" y="-192.3" class="st0" width="183" height="1.2"/>
	</g>
	<g id="XMLID_1082_">
		<path class="st0" d="M412.4-259.2h-0.5c-24.9,0-45.2,20.1-45.5,45l0,0.5c0,24.9,20.1,45.2,45,45.5h0.5c24.9,0,45.2-20.1,45.5-45
			v-0.5C457.4-238.6,437.3-258.9,412.4-259.2z M386.6-207.2l0-0.6L386.6-207.2l-0.3,0c-3.2,0-5.9-2.5-6-5.8l0-0.3
			c0-3.2,2.5-5.9,5.8-6l0.3,0c3.2,0,5.9,2.5,6,5.8v0l0,0.3C392.4-210.1,389.9-207.4,386.6-207.2z M399.4-195.8l-0.4-0.4L399.4-195.8
			c-0.4,0.5-1,0.7-1.5,0.7h-0.1c-0.5,0-1-0.2-1.4-0.5c-0.5-0.4-0.7-1-0.7-1.6c0-0.5,0.2-1,0.5-1.4c4-4.6,6-9.3,6-14
			c0-0.5,0-1-0.1-1.5c-0.8-8.5-8.1-14.4-8.2-14.4c-0.5-0.4-0.8-1.1-0.8-1.7c0-0.5,0.1-0.9,0.5-1.3l0,0l0,0l0,0
			c0.4-0.5,1.1-0.8,1.7-0.8c0.5,0,0.9,0.1,1.3,0.5c0.4,0.3,8.8,6.9,9.8,17.4c0.1,0.7,0.1,1.3,0.1,2
			C406.5-206.8,404.1-201.2,399.4-195.8z M411-187.4L411-187.4c-0.4,0.5-1,0.7-1.6,0.8h-0.1c-0.5,0-1-0.2-1.4-0.5
			c-0.5-0.4-0.8-1-0.8-1.7c0-0.5,0.2-1,0.5-1.4l0,0c6.1-7.3,9.1-14.8,9.1-22.2c0-0.9,0-1.7-0.1-2.6c-1.3-13.6-12.4-22.9-12.5-23
			c-0.5-0.4-0.8-1-0.8-1.7c0-0.5,0.2-1,0.5-1.4c0.4-0.5,1-0.8,1.7-0.8c0.5,0,1,0.2,1.4,0.5c0.5,0.5,12.5,10.4,14,25.8
			c0.1,1,0.1,2,0.1,3.1C421.1-203.8,417.7-195.4,411-187.4z M423.1-177.8c-0.4,0.5-1,0.7-1.6,0.8h-0.1c-0.5,0-1-0.2-1.4-0.5
			c-0.5-0.4-0.8-1-0.8-1.7c0-0.5,0.2-1,0.5-1.4l0,0c8.6-10.4,12.9-21,12.9-31.6c0-1.2-0.1-2.5-0.2-3.8
			c-1.8-19.4-17.6-32.6-17.7-32.7c-0.5-0.4-0.8-1-0.8-1.7c0-0.5,0.2-1,0.5-1.4l0,0l-0.1,0.1l0.1-0.1l0,0c0.4-0.5,1-0.8,1.7-0.8
			c0.5,0,1,0.2,1.4,0.5c0.2,0.2,4.4,3.6,8.9,9.7c4.1,5.6,9.3,14.7,10.4,25.8c0.1,1.4,0.2,2.8,0.2,4.2
			C437.1-200.4,432.4-188.8,423.1-177.8z"/>
	</g>
</g>
<rect x="661.4" y="-292.9" style="fill:none;" width="121.1" height="16.5"/>
<text transform="matrix(1 0 0 1 679.488 -282.5674)" style="fill:#231F20; font-family:'Spartan-ExtraBold'; font-size:12px;">Order Now:-</text>
<text transform="matrix(1 0 0 1 692.9543 -269.9178)" style="fill:#FFFFFF; font-family:'Spartan-ExtraBold'; font-size:8.2273px;">0741 947770</text>
</svg>
