<?xml version="1.0" encoding="utf-8"?>
<!-- Generator: Adobe Illustrator 25.0.0, SVG Export Plug-In . SVG Version: 6.00 Build 0)  -->
<svg version="1.1" id="Layer_1" xmlns="http://www.w3.org/2000/svg" xmlns:xlink="http://www.w3.org/1999/xlink" x="0px" y="0px"
	 viewBox="0 0 728 294" style="enable-background:new 0 0 728 294;" xml:space="preserve">
<style type="text/css">
	.st0{fill:url(#SVGID_1_);}
</style>
<path d="M75.3,225.6c0.4,0.8,0.6,1.4,0.6,2.3c0,1.1-0.2,1.9-0.6,2.7H1.6V118.2h71.9c0.4,0.6,0.6,1.4,0.6,2.5c0,1.1-0.2,1.9-0.6,2.5
	H7.9v47.9h56.2c0.4,0.6,0.6,1.4,0.6,2.3c0,0.9-0.2,1.7-0.6,2.5H7.9v49.6H75.3z"/>
<path d="M249,231.8c-14.6,0-27.9-12.1-28.5-12.6l0,0l0,0c-0.1-1.3,0.4-2.7,1.2-3.5l0,0l0,0c0.1,0.1,15,12,26.6,12
	c16.1,0,25-6.9,25-19.5c0-13.2-9.6-16.8-22.3-20.2l-0.4-0.1c-13.4-3.6-26.1-7.1-26.1-23.8c0-14.7,10.4-23.4,27.7-23.4
	c13.3,0,23.9,7.2,24.3,7.5l0,0l0,0c0.1,1.5-0.3,2.6-1.2,3.5l0,0l0,0c-0.1-0.1-11.8-7.1-22.6-7.1c-15.4,0-23.8,6.9-23.8,19.3
	c0,13.7,10.3,16.4,23.4,19.8c11.9,3.1,25.4,6.7,25.4,24.4C277.7,222.9,267,231.8,249,231.8z M347.3,230.6c-1.3,0-2.1-0.3-2.1-0.3
	l0,0v-34.4l-35.6-53.5l0,0c0,0,0.9-0.3,2.6-0.3c1.7,0,2.4,0.3,2.5,0.3l32.6,49.1l32.6-49.3c0,0,0.6-0.3,2.3-0.3c2,0,2.6,0.3,2.6,0.3
	l0,0l-35.4,53.6v34.5l0,0C349.4,230.2,348.6,230.6,347.3,230.6z M186.9,230.6c-1.6,0-2.5-0.4-2.5-0.4l0,0l-11.9-26.4h-49.6
	l-12.1,26.4l0,0c0,0-0.7,0.4-2.5,0.4c-1.8,0-2.2-0.4-2.3-0.4l0,0l39.8-87.9l0,0c0,0,0.6-0.4,2-0.4c1.3,0,2,0.4,2,0.4l0,0l39.8,87.9
	l0,0C189.4,230.2,188.7,230.6,186.9,230.6z M146.7,150.6c-0.3,0.6-0.6,1.4-0.9,2.3l-21.2,46.8h46l-21.1-46.8
	c-0.4-0.8-0.7-1.5-0.9-2.3l-0.9-2.4L146.7,150.6z"/>
<g>
	<path d="M575.5,140.5c-0.2-0.1-1.2-0.6-2.9-0.6c-1.9,0-2.9,0.5-3.1,0.7l-0.5,0.3l-41.3,89.8l1.2,1c0.7,0.6,1.8,0.9,3.6,0.9
		c2.1,0,3.2-0.4,3.5-0.6l0.6-0.3l12-25.9h47.8l12,26l0.8,0.3c0.1,0.1,1.4,0.5,3.3,0.5c2.1,0,3.2-0.4,3.5-0.6l1.7-0.9l-41.5-90.2
		L575.5,140.5z M552.2,197.8l20.3-44c0-0.1,0-0.1,0.1-0.2c0,0.1,20.2,44.2,20.2,44.2H552.2z"/>
	<path d="M710,152.1c-9-6.7-21.4-10.4-34.8-10.4h-31.3v89.8h31.3c35.4,0,51.2-13.9,51.2-45C726.4,171.9,720.8,160,710,152.1z
		 M675.8,222.4h-22.6v-72.2h22.6c36.2,0,41.7,22.5,41.7,36C717.5,218.3,695.2,222.4,675.8,222.4z"/>
	<path d="M502,155.2c0-23.4-15.1-38-39.4-38h-47.4v115.6h8.7v-39.6h38.5c0.5,0,1,0,1.4,0l29.5,39.7h10.3L473.6,192
		C491.4,188.1,502,174.5,502,155.2z M463.1,185.2h-39.1v-59.9h39.1c18.7,0,29.9,11.2,29.9,30S481.8,185.2,463.1,185.2z"/>
</g>
<linearGradient id="SVGID_1_" gradientUnits="userSpaceOnUse" x1="313.437" y1="66.063" x2="413.563" y2="66.063">
	<stop  offset="0" style="stop-color:#E62A19"/>
	<stop  offset="1" style="stop-color:#A3250D"/>
</linearGradient>
<path class="st0" d="M363.5,16c-27.6,0-50.1,22.4-50.1,50.1s22.4,50.1,50.1,50.1s50.1-22.4,50.1-50.1S391.1,16,363.5,16z
	 M335.4,70.8c-2.7,0-4.8-2.2-4.8-4.8c0-2.7,2.2-4.8,4.8-4.8c2.7,0,4.8,2.2,4.8,4.8C340.2,68.6,338,70.8,335.4,70.8z M358.1,65.8V66
	c0,0,0,0,0,0c0,5-2.4,10.5-6.1,14.3c-1.1,1.2-3,1.2-4.2,0c-1.2-1.1-1.2-3,0-4.2c2.7-2.7,4.4-6.7,4.4-10.2c0,0,0,0,0,0v-0.2
	c0,0,0,0,0,0c0-3.5-1.7-7.4-4.4-10.2c-0.6-0.6-0.9-1.3-0.9-2.1c0-0.8,0.3-1.5,0.9-2.1c1.2-1.1,3-1.1,4.2,0
	C355.8,55.3,358.1,60.8,358.1,65.8C358.1,65.8,358.1,65.8,358.1,65.8z M360,92.1c-0.6-0.6-0.9-1.3-0.9-2.1c0-0.8,0.3-1.5,0.9-2.1
	c6.1-6,9.4-13.8,9.4-21.9c0-8.1-3.3-15.8-9.4-21.9c-1.2-1.1-1.2-3,0-4.2c1.1-1.2,3-1.2,4.2,0c7.2,7.1,11.2,16.4,11.2,26
	c0,9.6-4,18.9-11.2,26C363,93.2,361.2,93.2,360,92.1z M376.3,102.9c-1.2,1.1-3,1-4.2-0.1c-0.5-0.6-0.8-1.3-0.8-2
	c0-0.8,0.3-1.6,0.9-2.2c9.2-8.5,14.2-20.1,14.2-32.5c0-12.4-5-24-14.2-32.5c-1.2-1.1-1.3-3-0.1-4.2c1.1-1.2,3-1.3,4.2-0.1
	c10.4,9.7,16.1,22.7,16.1,36.8C392.4,80.2,386.7,93.2,376.3,102.9z"/>
<g>
	<rect x="100.6" y="88.6" width="198.4" height="2.1"/>
	<rect x="428" y="88.6" width="198.4" height="2.1"/>
</g>
<path d="M658.9,96V98H422.9V96H658.9z M68.1,98h235.9V96H68.1V98z"/>
<g>
	<rect x="68.1" y="253" width="590.7" height="2.1"/>
</g>
<g>
	<rect x="97.7" y="261.1" width="531.7" height="2.1"/>
</g>
</svg>
