<svg width="186" height="54" viewBox="0 0 186 54" fill="none" xmlns="http://www.w3.org/2000/svg">
<g clip-path="url(#clip0)">
<path d="M0.333008 34.1885H18.9178V38.0744H7.25053V41.6696H14.948V45.5608H7.25053V53.0261H0.333008V34.1885Z" fill="#222222"/>
<path d="M28.9063 34.1885H21.9888V53.0314H28.9063V34.1885Z" fill="#222222"/>
<path d="M47.017 40.845C46.8018 39.1479 45.6453 37.583 43.3323 37.583C40.6427 37.583 39.298 39.3594 39.298 43.3987C39.2926 47.6177 40.519 49.6268 43.9724 49.6268C45.0224 49.6258 46.0418 49.2789 46.8677 48.6416C47.6936 48.0042 48.2783 47.1132 48.5285 46.1109L53.7193 46.9833C52.1056 51.4455 48.5285 53.37 42.6384 53.37C37.9639 53.37 32.0093 50.5414 32.0093 43.7529C32.0093 36.8163 37.7757 33.8345 43.6443 33.8345C49.7119 33.8345 53.0254 37.0067 53.5149 40.4644L47.017 40.8398" fill="#222222"/>
<path d="M56.79 34.1885H63.7129V41.3365H70.5605V34.1885H77.4834V53.0261H70.5605V45.5291H63.7129V53.0261H56.79V34.1885Z" fill="#222222"/>
<path d="M112.338 37.9264H105.663V34.1885H125.92V37.9264H119.256V53.0261H112.338V37.9264Z" fill="#222222"/>
<path d="M102.592 44.3714V44.144C102.937 36.9802 98.2568 33.8291 92.2107 33.8291C86.3367 33.8291 80.5703 36.8215 80.5703 43.7422C80.5703 50.5308 86.525 53.3646 91.2155 53.3646C97.1003 53.3646 100.667 51.4401 102.296 46.9779L97.1003 46.1055C96.8572 47.112 96.2746 48.0079 95.4472 48.6473C94.6199 49.2867 93.5966 49.6319 92.5442 49.6267C89.3167 49.6267 88.0473 47.956 87.8805 44.3397H88.9294H102.592V44.3714ZM88.1548 40.7339C88.7412 38.5398 90.1236 37.5617 92.1354 37.5617C93.0915 37.5323 94.0277 37.8338 94.7808 38.4135C95.5338 38.9933 96.0558 39.8145 96.2558 40.7339H88.1548Z" fill="#222222"/>
<path d="M6.22312 1.38135H0.333008V23.9939H4.75463V15.7462H6.22312C10.1068 15.7462 12.1778 13.7582 12.1778 9.99917V7.12833C12.1778 3.35869 10.1068 1.38135 6.22312 1.38135ZM4.75463 5.16685H6.22312C7.16984 5.16685 7.75616 5.45763 7.75616 6.91685V10.2001C7.75616 11.6593 7.16984 11.9501 6.22312 11.9501H4.75463V5.16685Z" fill="#222222"/>
<path d="M20.1291 0.875C16.2831 0.875 14.0776 2.9898 14.0776 6.71715V18.1424C14.0776 21.8433 16.2831 23.9581 20.1291 23.9581C23.9752 23.9581 26.1806 21.8433 26.1806 18.1424V6.71715C26.1914 3.00038 23.9752 0.875 20.1291 0.875ZM18.5154 6.50038C18.4993 5.21563 18.9995 4.68693 20.1453 4.68693C21.291 4.68693 21.7859 5.21563 21.7859 6.50038V18.3697C21.7859 19.6386 21.2856 20.2096 20.1453 20.2096C19.0049 20.2096 18.4993 19.6492 18.4993 18.3697L18.5154 6.50038Z" fill="#222222"/>
<path d="M33.4992 1.38232H29.083V23.9896H33.4992V1.38232Z" fill="#222222"/>
<path d="M45.2907 12.6331L41.9718 1.38232H36.6733V23.979H40.7077V9.96314L44.8711 23.979H49.3035V1.38232H45.2907V12.6331Z" fill="#222222"/>
<path d="M51.3789 5.16254H55.3218V23.979H59.7434V5.16254H63.697V1.38232H51.3789V5.16254Z" fill="#222222"/>
<path d="M72.2222 23.979H76.6384V14.9171H81.5173V11.1369H76.6384V5.16254H82.8674V1.38232H72.2222V23.979Z" fill="#222222"/>
<path d="M90.8874 0.875C87.0414 0.875 84.8359 2.9898 84.8359 6.71715V18.1424C84.8359 21.8433 87.0414 23.9581 90.8874 23.9581C94.7335 23.9581 96.9389 21.8433 96.9389 18.1424V6.71715C96.9389 3.00038 94.7335 0.875 90.8874 0.875ZM89.2414 6.50038C89.2414 5.2315 89.7471 4.6605 90.8874 4.6605C92.0278 4.6605 92.5442 5.21563 92.5442 6.50038V18.3697C92.5442 19.6386 92.0386 20.2096 90.8982 20.2096C89.7578 20.2096 89.2522 19.6492 89.2522 18.3697L89.2414 6.50038Z" fill="#222222"/>
<path d="M111.821 21.0024V17.6082C111.821 15.2396 111.154 13.7328 109.729 12.9133C111.116 12.0727 111.794 10.6187 111.794 8.47749V6.75393C111.794 3.09532 109.917 1.38232 105.877 1.38232H99.8418V23.9949H104.263V15.0387H105.253C106.867 15.0387 107.405 15.6837 107.405 17.513V20.9601C107.405 22.7789 107.539 23.1648 107.771 23.7675L107.851 23.979H112.445L112.23 23.5243C111.904 22.7242 111.764 21.8625 111.821 21.0024ZM104.263 5.16782H105.759C106.722 5.16782 107.373 5.5009 107.373 7.10287V9.26526C107.373 10.6822 106.802 11.2585 105.431 11.2585H104.274L104.263 5.16782Z" fill="#222222"/>
<path d="M113.656 1.38232V5.16254H117.599V23.979H122.015V5.16254H125.974V1.38232H113.656Z" fill="#222222"/>
<path d="M184.361 20.7969H156.67V24.2863H184.361V20.7969Z" fill="#BCBD00"/>
<path d="M181.042 0.917972H137.285C136.012 0.917972 134.792 1.41484 133.892 2.29926C132.992 3.18368 132.487 4.38322 132.487 5.63398V48.6491C132.487 49.8999 132.992 51.0994 133.892 51.9838C134.792 52.8682 136.012 53.3651 137.285 53.3651H181.042C182.315 53.3651 183.536 52.8684 184.437 51.9841C185.337 51.0999 185.844 49.9003 185.845 48.6491V5.64984C185.848 5.02875 185.725 4.41336 185.484 3.83901C185.244 3.26466 184.89 2.74266 184.444 2.30299C183.998 1.86332 183.467 1.51463 182.884 1.27695C182.3 1.03927 181.674 0.917272 181.042 0.917972ZM181.042 51.816H137.285C136.429 51.816 135.608 51.4818 135.003 50.8869C134.397 50.292 134.057 49.4851 134.057 48.6438V5.64984C134.057 4.80852 134.397 4.00166 135.003 3.40676C135.608 2.81185 136.429 2.47764 137.285 2.47764H181.042C181.898 2.47764 182.719 2.81185 183.324 3.40676C183.929 4.00166 184.269 4.80852 184.269 5.64984V48.6597C184.265 49.4982 183.923 50.301 183.318 50.8925C182.714 51.484 181.895 51.816 181.042 51.816Z" fill="#222222"/>
<path d="M139.022 5.67041V49.2354H154.723V39.3857H177.535V26.2897H154.588V18.7663H177.535V5.67041H139.022Z" fill="#222222"/>
</g>
<defs>
<clipPath id="clip0">
<rect width="185.507" height="52.5" fill="white" transform="translate(0.33252 0.875)"/>
</clipPath>
</defs>
</svg>
