<?xml version="1.0" encoding="utf-8"?>
<!-- Generator: Adobe Illustrator 25.0.0, SVG Export Plug-In . SVG Version: 6.00 Build 0)  -->
<svg version="1.1" id="Layer_1" xmlns="http://www.w3.org/2000/svg" xmlns:xlink="http://www.w3.org/1999/xlink" x="0px" y="0px"
	 viewBox="0 0 1440 320" style="enable-background:new 0 0 1440 320;" xml:space="preserve">
<style type="text/css">
	.st0{fill:#E9ECEF;}
</style>
<path class="st0" d="M0,56.4l40-6.9c40-7,120-20.5,200-30.9C320,8.4,400,1.3,480,3.1c80,1.7,160,12,240,25.8
	c80,13.6,160,31,240,22.3s160-42.9,240-49.9c80-6.9,160,13.8,200,24.1l40,10.3V77h-40c-40,0-120,0-200,0s-160,0-240,0s-160,0-240,0
	s-160,0-240,0s-160,0-240,0S80,77,40,77H0V56.4z"/>
<path class="st0" d="M1440,282.7l-40,4.5c-40,4.6-120,13.6-200,20.5c-80,6.8-160,11.5-240,10.2c-80-1.1-160-8-240-17.1
	c-80-9-160-20.6-240-14.8c-80,5.8-160,28.4-240,33c-80,4.5-160-9.1-200-15.9l-40-6.8L0,77h40c40,0,120,0,200,0s160,0,240,0
	s160,0,240,0s160,0,240,0s160,0,240,0s160,0,200,0h40V282.7z"/>
</svg>
