<?xml version="1.0" encoding="utf-8"?>
<!-- Generator: Adobe Illustrator 25.0.0, SVG Export Plug-In . SVG Version: 6.00 Build 0)  -->
<svg version="1.1" id="Layer_1" xmlns="http://www.w3.org/2000/svg" xmlns:xlink="http://www.w3.org/1999/xlink" x="0px" y="0px"
	 viewBox="0 0 1440 320" style="enable-background:new 0 0 1440 320;"  xml:space="preserve">
<style type="text/css">
	.st0{fill:#E9ECEF;}
	.st1{fill:#E21D3B;}
</style>
<path class="st0" d="M-0.5,132.8l1440,85.2v102.9H-0.5V132.8z"/>
<path class="st1" d="M0,243h40c40,0,120,0,200,0s160,0,240,0s160,0,240,0s160,0,240,0s160,0,240,0s160,0,200,0h40v41.2l-40,10.3
	c-40,10.3-120,30.9-200,24.1c-80-7-160-41.1-240-49.9s-160,8.7-240,22.3c-80,13.8-160,24.1-240,25.8c-80,1.8-160-5.3-240-15.5
	C160,291,80,277.5,40,270.5l-40-6.9V243z"/>
<path class="st1" d="M1440,243h-40c-40,0-120,0-200,0s-160,0-240,0s-160,0-240,0s-160,0-240,0s-160,0-240,0s-160,0-200,0H0V23.7
	l40-6.8C80,10,160-3.6,240,0.9c80,4.6,160,27.3,240,33s160-5.8,240-14.8c80-9.1,160-15.9,240-17c80-1.2,160,3.5,240,10.2
	c80,6.9,160,15.9,200,20.5l40,4.5V243z"/>
</svg>
